# xmcd
#
# Track frame offsets: 
#        150
#        21320
#        42380
#        61030
#        79627
#        98122
#        115355
#        129840
#        149405
#        171535
#        190534
#        212287
#        232247
#
# Disc length: 3341 seconds
#
# Revision: 4
# Processed by: cddbd v1.5.2PL0 Copyright (c) Steve Scherf et al.
# Submitted via: ExactAudioCopy v1.0b4
#
DISCID=af0d0b0d
DTITLE=Joanna - Sempre no meu coração
DYEAR=1995
DGENRE=Vocal
TTITLE0=Lua Que Vem
TTITLE1=Pensa Bem
TTITLE2=Está  Na Pele
TTITLE3=Armadilhas
TTITLE4=O Que Passou, Passou
TTITLE5=Nunca Se Esqueça De Mim
TTITLE6=Sempre No Meu Coração
TTITLE7=Só O Tempo Vai Dizer
TTITLE8=Pensando Nele
TTITLE9=Fingindo Amar
TTITLE10=Aventuras Passageiras
TTITLE11=Eterno E Fugaz
TTITLE12=A Distância
EXTD=
EXTT0=
EXTT1=
EXTT2=
EXTT3=
EXTT4=
EXTT5=
EXTT6=(Always In My Heart]\n
EXTT7=
EXTT8=
EXTT9=
EXTT10=
EXTT11=
EXTT12=
PLAYORDER=
